<svg xmlns="http://www.w3.org/2000/svg" xmlns:xlink="http://www.w3.org/1999/xlink" width="500" zoomAndPan="magnify" viewBox="0 0 375 374.999991" height="500" preserveAspectRatio="xMidYMid meet" version="1.0"><defs><clipPath id="4d6e76e847"><path d="M 8.222656 336 L 234 336 L 234 367.320312 L 8.222656 367.320312 Z M 8.222656 336 " clip-rule="nonzero"/></clipPath></defs><path fill="#ffffff" d="M 256.21875 82.386719 C 262.988281 73.96875 250.019531 52.28125 227.246094 33.949219 C 204.472656 15.609375 180.523438 7.578125 173.746094 15.988281 C 172.367188 17.703125 171.8125 19.972656 171.988281 22.648438 L 161.15625 36.117188 L 239.246094 98.980469 L 250.085938 85.515625 C 252.734375 85.113281 254.835938 84.101562 256.21875 82.386719 " fill-opacity="1" fill-rule="nonzero"/><path fill="#ffffff" d="M 60.511719 156.644531 C 53.734375 165.0625 66.707031 186.742188 89.480469 205.082031 C 112.253906 223.414062 136.207031 231.453125 142.984375 223.042969 C 144.363281 221.328125 144.910156 219.050781 144.738281 216.375 L 155.578125 202.914062 L 77.480469 140.050781 L 66.648438 153.507812 C 64 153.910156 61.890625 154.929688 60.511719 156.644531 " fill-opacity="1" fill-rule="nonzero"/><path fill="#ffffff" d="M 359.460938 262.324219 L 233.773438 161.140625 C 236.765625 157.425781 236.53125 152.070312 233.226562 148.628906 L 208.617188 123.011719 L 225.347656 102.21875 L 160.960938 50.382812 L 91.382812 136.804688 L 155.773438 188.648438 L 172.507812 167.863281 L 202.792969 186.4375 C 206.859375 188.925781 212.144531 188.011719 215.136719 184.300781 L 340.816406 285.476562 C 347.214844 290.625 356.574219 289.621094 361.722656 283.222656 C 366.867188 276.824219 365.859375 267.464844 359.460938 262.324219 " fill-opacity="1" fill-rule="nonzero"/><path fill="#ffffff" d="M 219.296875 324.453125 C 219.078125 318.625 214.277344 313.910156 208.390625 313.910156 L 207.398438 313.910156 L 207.398438 307.023438 C 207.398438 301.015625 202.472656 296.082031 196.457031 296.082031 L 46.257812 296.082031 C 40.246094 296.082031 35.316406 301.015625 35.316406 307.023438 L 35.316406 313.910156 L 34.324219 313.910156 C 28.445312 313.910156 23.636719 318.625 23.425781 324.453125 L 219.296875 324.453125 " fill-opacity="1" fill-rule="nonzero"/><g clip-path="url(#4d6e76e847)"><path fill="#ffffff" d="M 14.730469 336.136719 C 14.519531 336.867188 11.121094 347.867188 9.421875 353.367188 C 8.253906 357.117188 8.894531 361.382812 11.667969 364.164062 C 13.652344 366.148438 16.394531 367.386719 19.40625 367.386719 L 223.3125 367.386719 C 225.722656 367.386719 227.953125 366.601562 229.761719 365.265625 C 233.445312 362.566406 234.597656 357.570312 233.25 353.207031 C 231.535156 347.65625 228.195312 336.859375 227.984375 336.136719 L 14.730469 336.136719 " fill-opacity="1" fill-rule="nonzero"/></g></svg>