<svg xmlns="http://www.w3.org/2000/svg" xmlns:xlink="http://www.w3.org/1999/xlink" width="500" zoomAndPan="magnify" viewBox="0 0 375 374.999991" height="500" preserveAspectRatio="xMidYMid meet" version="1.0"><defs><clipPath id="d352843851"><path d="M 93 308.21875 L 282 308.21875 L 282 353.449219 L 93 353.449219 Z M 93 308.21875 " clip-rule="nonzero"/></clipPath><clipPath id="e760173711"><path d="M 6.851562 99.25 L 368.242188 99.25 L 368.242188 247 L 6.851562 247 Z M 6.851562 99.25 " clip-rule="nonzero"/></clipPath><clipPath id="d24c952613"><path d="M 6.851562 253 L 368.242188 253 L 368.242188 287 L 6.851562 287 Z M 6.851562 253 " clip-rule="nonzero"/></clipPath><clipPath id="51615249be"><path d="M 173 21.199219 L 202 21.199219 L 202 302 L 173 302 Z M 173 21.199219 " clip-rule="nonzero"/></clipPath></defs><g clip-path="url(#d352843851)"><path fill="#ffffff" d="M 281.421875 332.992188 L 281.421875 348.128906 C 281.421875 351.285156 279.464844 353.84375 277.054688 353.84375 L 98.03125 353.84375 C 95.621094 353.84375 93.664062 351.285156 93.664062 348.128906 L 93.664062 332.992188 C 93.664062 329.835938 95.621094 327.277344 98.03125 327.277344 L 115.3125 327.277344 C 125.695312 327.277344 135.304688 321.9375 140.617188 313.226562 C 142.308594 310.453125 145.367188 308.761719 148.671875 308.761719 L 226.414062 308.761719 C 229.71875 308.761719 232.777344 310.453125 234.46875 313.226562 C 239.78125 321.9375 249.398438 327.277344 259.765625 327.277344 L 277.054688 327.277344 C 279.464844 327.277344 281.421875 329.835938 281.421875 332.992188 " fill-opacity="1" fill-rule="nonzero"/></g><g clip-path="url(#e760173711)"><path fill="#ffffff" d="M 14.722656 245.984375 L 66.914062 106.714844 L 119.097656 245.984375 L 126.632812 245.984375 C 126.738281 245.984375 126.859375 246.015625 126.976562 246.023438 L 72.195312 99.828125 L 61.632812 99.828125 L 6.851562 246.023438 C 6.972656 246.015625 7.078125 245.984375 7.207031 245.984375 Z M 313.453125 99.828125 L 368.234375 246.023438 C 368.117188 246.015625 367.996094 245.984375 367.878906 245.984375 L 360.355469 245.984375 L 308.171875 106.714844 L 255.988281 245.984375 L 248.464844 245.984375 C 248.335938 245.984375 248.230469 246.015625 248.109375 246.023438 L 302.890625 99.828125 L 313.453125 99.828125 " fill-opacity="1" fill-rule="nonzero"/></g><g clip-path="url(#d24c952613)"><path fill="#ffffff" d="M 126.976562 253.191406 L 6.851562 253.191406 C 18.027344 273.058594 41.453125 286.070312 66.914062 286.070312 C 92.375 286.070312 115.792969 273.058594 126.976562 253.191406 Z M 248.109375 253.191406 L 368.234375 253.191406 C 357.0625 273.058594 333.632812 286.070312 308.171875 286.070312 C 282.710938 286.070312 259.292969 273.058594 248.109375 253.191406 " fill-opacity="1" fill-rule="nonzero"/></g><path fill="#ffffff" d="M 49.289062 76.933594 C 49.289062 74.945312 50.941406 73.335938 52.976562 73.335938 C 55.015625 73.335938 56.667969 74.945312 56.667969 76.933594 C 56.667969 82.519531 61.320312 87.0625 67.03125 87.0625 C 72.746094 87.0625 77.386719 82.519531 77.386719 76.933594 C 77.386719 74.945312 79.039062 73.335938 81.078125 73.335938 L 93.664062 73.335938 L 93.664062 69.371094 C 93.664062 66.214844 95.621094 63.65625 98.03125 63.65625 L 151.5625 63.65625 C 160.464844 63.65625 168.558594 59.398438 174.300781 52.75 C 177.476562 49.0625 182.238281 46.722656 187.539062 46.722656 C 192.847656 46.722656 197.609375 49.0625 200.785156 52.75 C 206.519531 59.398438 214.625 63.65625 223.515625 63.65625 L 277.054688 63.65625 C 279.464844 63.65625 281.421875 66.214844 281.421875 69.371094 L 281.421875 73.335938 L 294.011719 73.335938 C 296.046875 73.335938 297.699219 74.945312 297.699219 76.933594 C 297.699219 82.519531 302.339844 87.0625 308.0625 87.0625 C 313.769531 87.0625 318.421875 82.519531 318.421875 76.933594 C 318.421875 74.945312 320.074219 73.335938 322.109375 73.335938 C 324.144531 73.335938 325.796875 74.945312 325.796875 76.933594 C 325.796875 86.503906 317.839844 94.273438 308.0625 94.273438 C 299.539062 94.273438 292.40625 88.382812 290.707031 80.542969 L 281.421875 80.542969 L 281.421875 84.507812 C 281.421875 87.664062 279.464844 90.21875 277.054688 90.21875 L 98.03125 90.21875 C 95.621094 90.21875 93.664062 87.664062 93.664062 84.507812 L 93.664062 80.542969 L 84.382812 80.542969 C 82.679688 88.382812 75.550781 94.273438 67.03125 94.273438 C 57.246094 94.273438 49.289062 86.503906 49.289062 76.933594 " fill-opacity="1" fill-rule="nonzero"/><g clip-path="url(#51615249be)"><path fill="#ffffff" d="M 187.546875 41.566406 C 193.300781 41.566406 197.964844 37.003906 197.964844 31.378906 C 197.964844 25.753906 193.300781 21.191406 187.546875 21.191406 C 181.785156 21.191406 177.125 25.753906 177.125 31.378906 C 177.125 37.003906 181.785156 41.566406 187.546875 41.566406 Z M 173.957031 97.429688 L 201.128906 97.429688 L 201.128906 301.542969 L 173.957031 301.542969 L 173.957031 97.429688 " fill-opacity="1" fill-rule="nonzero"/></g></svg>