<svg xmlns="http://www.w3.org/2000/svg" xmlns:xlink="http://www.w3.org/1999/xlink" width="500" zoomAndPan="magnify" viewBox="0 0 375 374.999991" height="500" preserveAspectRatio="xMidYMid meet" version="1.0"><defs><clipPath id="1c37e100c1"><path d="M 6.449219 6.449219 L 368.699219 6.449219 L 368.699219 368.699219 L 6.449219 368.699219 Z M 6.449219 6.449219 " clip-rule="nonzero"/></clipPath></defs><g clip-path="url(#1c37e100c1)"><path fill="#ffffff" d="M 187.503906 358.71875 C 93.089844 358.71875 16.277344 281.898438 16.277344 187.507812 C 16.277344 125.140625 49.816406 70.449219 99.800781 40.515625 C 101.699219 41.910156 104.085938 42.859375 107.125 42.859375 C 107.125 42.859375 110.410156 42.859375 89.425781 59.25 C 68.433594 75.660156 70.390625 98.40625 76.949219 84.089844 C 83.519531 69.75 89.425781 75 78.925781 95.34375 C 68.433594 115.691406 84.449219 109.121094 89.871094 121.578125 C 95.324219 134.035156 97.292969 118.960938 99.90625 142.582031 C 99.90625 142.582031 106.496094 150.445312 118.285156 146.511719 C 130.089844 142.582031 116.316406 156.992188 103.851562 168.8125 C 91.382812 180.628906 95.316406 184.542969 101.886719 191.769531 C 108.441406 198.996094 111.078125 204.886719 105.167969 212.769531 C 99.269531 220.636719 114.351562 223.253906 118.285156 227.84375 C 122.21875 232.4375 121.558594 247.53125 112.382812 254.097656 C 103.210938 260.644531 116.976562 275.078125 114.992188 295.421875 C 113.023438 315.746094 113.507812 324.269531 122.78125 325.585938 C 132.058594 326.902344 121.558594 307.878906 125.492188 299.355469 C 129.433594 290.832031 134.035156 305.265625 143.210938 282.304688 C 143.210938 282.304688 159.625 286.238281 166.8125 261.304688 C 166.8125 261.304688 181.246094 259.328125 183.878906 251.460938 C 186.515625 243.597656 183.222656 238.347656 204.203125 221.292969 C 225.183594 204.226562 189.773438 191.109375 170.765625 190.453125 C 170.765625 190.453125 163.789062 193.300781 176.011719 171.429688 C 181.339844 161.878906 165.511719 164.21875 161.582031 155.695312 C 157.648438 147.167969 148.464844 137.328125 130.089844 139.289062 C 111.726562 141.261719 106.457031 147.832031 105.824219 136.667969 C 105.167969 125.507812 113.683594 120.277344 104.5 118.960938 C 95.324219 117.640625 99.90625 116.984375 109.769531 107.800781 C 109.769531 107.800781 103.851562 103.847656 97.949219 109.777344 C 92.042969 115.691406 81.539062 106.503906 94.007812 93.386719 C 106.496094 80.253906 126.148438 70.40625 124.839844 95.34375 C 123.535156 120.277344 132.71875 84.089844 132.71875 84.089844 C 132.71875 84.089844 146.492188 66.476562 163.554688 65.175781 C 180.585938 63.863281 170.105469 63.203125 170.105469 57.292969 C 170.105469 51.40625 177.972656 67.132812 187.503906 63.203125 C 196.996094 59.25 177.3125 57.953125 179.289062 51.40625 C 181.246094 44.835938 192.421875 46.792969 196.996094 55.335938 C 201.589844 63.863281 206.839844 50.746094 195.039062 36.953125 C 183.222656 23.195312 185.199219 31.722656 174.039062 37.609375 C 162.898438 43.515625 167.492188 46.792969 165.511719 36.953125 C 163.554688 27.128906 162.898438 37.609375 157.648438 32.378906 C 152.378906 27.128906 167.007812 29.550781 174.699219 30.402344 C 182.390625 31.234375 179.949219 25.808594 179.949219 25.808594 L 187.503906 22.535156 C 187.503906 22.535156 192.421875 29.746094 198.316406 28.425781 C 204.203125 27.128906 194.378906 17.925781 200.269531 19.242188 C 206.179688 20.558594 214.046875 15.3125 214.707031 23.195312 C 215.363281 31.058594 210.113281 41.558594 231.773438 29.746094 C 236.152344 27.359375 239.078125 25.808594 241.070312 24.882812 C 242.546875 25.367188 243.980469 25.871094 245.429688 26.410156 C 245.566406 27.980469 246.070312 30.015625 248.824219 31.722656 C 257.347656 36.953125 254.734375 32.359375 265.871094 38.929688 C 277.03125 45.496094 269.804688 52.703125 278.328125 54.019531 C 286.855469 55.335938 294.738281 67.132812 288.195312 67.792969 C 281.621094 68.453125 280.964844 60.589844 271.140625 59.25 C 261.28125 57.953125 275.078125 62.523438 281.621094 68.453125 C 288.195312 74.34375 288.195312 81.339844 281.621094 84.089844 C 275.078125 86.824219 279.917969 101.910156 290.613281 99.9375 C 301.308594 97.960938 297.355469 86.824219 303.261719 89.453125 C 309.175781 92.066406 307.195312 98.617188 317.042969 102.570312 C 326.898438 106.503906 315.722656 111.734375 327.542969 112.390625 C 339.359375 113.054688 345.246094 117.640625 334.746094 122.234375 C 324.25 126.847656 329.515625 130.761719 320.3125 119.601562 C 311.132812 108.460938 312.039062 119.136719 311.132812 108.460938 C 310.238281 97.785156 295.402344 107.800781 287.53125 109.121094 C 279.648438 110.433594 286.214844 118.300781 278.988281 119.601562 C 271.761719 120.921875 268.488281 118.960938 270.460938 136.011719 C 272.421875 153.082031 267.847656 156.992188 259.960938 156.992188 C 252.09375 156.992188 266.546875 166.175781 270.460938 177.996094 C 274.398438 189.796875 275.078125 197.019531 292.125 192.429688 C 309.175781 187.835938 303.921875 187.835938 305.898438 197.019531 C 307.855469 206.203125 315.082031 191.769531 316.382812 200.953125 C 317.699219 210.136719 299.988281 212.113281 309.8125 218 C 319.65625 223.894531 312.46875 237.6875 307.855469 240.960938 C 303.261719 244.253906 306.539062 256.035156 296.714844 261.304688 C 286.855469 266.554688 301.308594 275.714844 295.402344 281.644531 C 289.507812 287.554688 273.742188 294.761719 279.648438 309.199219 C 285.574219 323.609375 285.574219 315.085938 298.03125 304.585938 C 310.472656 294.105469 320.992188 276.394531 326.898438 277.054688 C 329.011719 277.289062 330.019531 278.933594 331.277344 280.332031 C 300.730469 327.46875 247.699219 358.71875 187.503906 358.71875 Z M 187.503906 6.453125 C 87.65625 6.453125 6.4375 87.667969 6.4375 187.507812 C 6.4375 287.324219 87.65625 368.558594 187.503906 368.558594 C 287.320312 368.558594 368.535156 287.324219 368.535156 187.507812 C 368.535156 87.667969 287.320312 6.453125 187.503906 6.453125 " fill-opacity="1" fill-rule="nonzero"/></g></svg>