<svg xmlns="http://www.w3.org/2000/svg" xmlns:xlink="http://www.w3.org/1999/xlink" width="500" zoomAndPan="magnify" viewBox="0 0 375 374.999991" height="500" preserveAspectRatio="xMidYMid meet" version="1.0"><defs><clipPath id="b1294bea21"><path d="M 255 287 L 356 287 L 356 367.972656 L 255 367.972656 Z M 255 287 " clip-rule="nonzero"/></clipPath><clipPath id="f2c6d75b67"><path d="M 18.039062 78 L 98 78 L 98 101 L 18.039062 101 Z M 18.039062 78 " clip-rule="nonzero"/></clipPath><clipPath id="559ed588fc"><path d="M 28 7.222656 L 88 7.222656 L 88 72 L 28 72 Z M 28 7.222656 " clip-rule="nonzero"/></clipPath><clipPath id="c5d2ada546"><path d="M 65 215 L 283 215 L 283 367.972656 L 65 367.972656 Z M 65 215 " clip-rule="nonzero"/></clipPath></defs><g clip-path="url(#b1294bea21)"><path fill="#ffffff" d="M 328.394531 367.773438 L 262.640625 367.773438 C 260.113281 367.773438 257.773438 366.441406 256.472656 364.289062 C 255.15625 362.128906 255.082031 359.449219 256.253906 357.214844 L 289.5 293.632812 C 289.621094 293.40625 289.738281 293.175781 289.882812 292.964844 C 293.496094 287.53125 300.617188 285.488281 306.363281 288.335938 L 348.261719 309.273438 C 353.871094 312.101562 356.617188 318.746094 354.925781 325.460938 C 354.78125 326.007812 354.585938 326.550781 354.304688 327.078125 L 334.808594 363.929688 C 333.53125 366.289062 331.074219 367.773438 328.394531 367.773438 Z M 328.394531 367.773438 " fill-opacity="1" fill-rule="nonzero"/></g><g clip-path="url(#f2c6d75b67)"><path fill="#ffffff" d="M 90.675781 100.429688 L 25.644531 100.429688 C 21.65625 100.429688 18.421875 97.191406 18.421875 93.203125 L 18.421875 85.980469 C 18.421875 81.992188 21.65625 78.753906 25.644531 78.753906 L 90.675781 78.753906 C 94.664062 78.753906 97.902344 81.992188 97.902344 85.980469 L 97.902344 93.203125 C 97.902344 97.191406 94.664062 100.429688 90.675781 100.429688 Z M 90.675781 100.429688 " fill-opacity="1" fill-rule="nonzero"/></g><path fill="#ffffff" d="M 82.003906 131.5 C 79.835938 114.878906 76.226562 107.65625 76.226562 107.65625 L 43.710938 107.65625 C 36.484375 113.433594 35.761719 131.5 57.4375 136.558594 C 61.773438 173.40625 71.890625 213.148438 73.335938 217.476562 C 79.835938 237.714844 78.285156 232.445312 78.285156 232.445312 C 84.398438 250.683594 93.039062 275.894531 97.640625 289.261719 C 105.175781 272.664062 110.804688 247.292969 113.566406 226.042969 C 113.949219 223.105469 114.28125 220.226562 114.546875 217.480469 L 114.78125 212.191406 C 99.792969 179.546875 91.398438 161.847656 82.003906 131.5 Z M 82.003906 131.5 " fill-opacity="1" fill-rule="nonzero"/><path fill="#ffffff" d="M 242.171875 175.804688 C 241.796875 172.4375 240.949219 169.1875 239.730469 166.085938 C 257.476562 152.8125 277.75 136.414062 277.09375 135.113281 C 276.449219 133.175781 251.527344 143.378906 230.769531 152.273438 C 228.652344 150.082031 226.28125 148.082031 223.695312 146.289062 C 232.613281 125.472656 242.902344 100.359375 240.964844 99.707031 C 239.050781 98.429688 222.445312 120.871094 208.636719 139.070312 C 205.957031 138.261719 203.175781 137.632812 200.316406 137.222656 C 197.484375 114.628906 193.78125 85.980469 191.832031 85.980469 C 189.882812 85.980469 186.183594 114.628906 183.347656 137.214844 C 180.691406 137.605469 178.097656 138.152344 175.597656 138.882812 C 162.105469 120.703125 144.636719 98.335938 142.699219 98.976562 C 140.742188 99.628906 151.183594 125.675781 160.148438 146.160156 C 157.511719 147.980469 155.097656 150.03125 152.929688 152.265625 C 132.273438 143.371094 107.859375 133.167969 106.566406 135.105469 C 105.914062 137.054688 126.1875 152.9375 143.933594 166.101562 C 142.726562 169.164062 141.867188 172.367188 141.492188 175.699219 C 129.433594 177.078125 116.179688 178.847656 107.285156 180.632812 C 99.339844 182.078125 100.0625 186.414062 108.007812 187.859375 C 117.945312 189.605469 131.613281 191.355469 143.753906 192.71875 C 144.050781 193.5 144.511719 194.246094 144.859375 195.011719 C 144.886719 170.847656 163.753906 154.613281 191.824219 154.613281 C 220.351562 154.613281 238.789062 170.496094 238.789062 195.074219 C 238.789062 195.199219 238.777344 195.300781 238.777344 195.414062 C 239.210938 194.453125 239.75 193.566406 240.097656 192.570312 C 262.484375 189.757812 290.097656 186.152344 290.097656 184.246094 C 290.097656 182.300781 264.613281 178.632812 242.171875 175.804688 Z M 242.171875 175.804688 " fill-opacity="1" fill-rule="nonzero"/><path fill="#ffffff" d="M 191.832031 169.070312 C 172.386719 169.070312 159.316406 179.527344 159.316406 195.082031 C 159.316406 213.285156 173.277344 241.328125 191.832031 241.328125 C 210.371094 241.328125 224.347656 213.269531 224.347656 195.082031 C 224.347656 178.796875 212.179688 169.070312 191.832031 169.070312 Z M 191.832031 169.070312 " fill-opacity="1" fill-rule="nonzero"/><g clip-path="url(#559ed588fc)"><path fill="#ffffff" d="M 85.25 71.527344 C 90.269531 54.113281 84.359375 36.273438 79.722656 30.003906 C 78.882812 46.144531 68.847656 40.191406 70.523438 32.546875 C 74.699219 17.265625 57.980469 7.070312 57.980469 7.070312 C 57.980469 7.070312 56.304688 15.574219 37.070312 38.5 C 27.316406 50.601562 27.570312 62.222656 30.980469 71.527344 Z M 85.25 71.527344 " fill-opacity="1" fill-rule="nonzero"/></g><path fill="#ffffff" d="M 76.953125 313.207031 C 80.207031 311.960938 83.328125 309.027344 86.320312 305.035156 C 86.714844 304.765625 87.28125 303.074219 87.4375 303.558594 C 84.996094 295.914062 80.53125 283.921875 77.953125 276.40625 C 75.074219 268.011719 71.867188 258.617188 68.871094 249.765625 C 65.777344 257.605469 62.691406 266.023438 60.285156 273.644531 C 60.191406 273.871094 60.019531 274.050781 59.945312 274.289062 C 58.96875 277.539062 58.21875 280.464844 57.5625 283.269531 C 57.496094 283.550781 57.386719 283.890625 57.324219 284.167969 C 57.332031 284.179688 57.335938 284.195312 57.34375 284.210938 C 56.28125 288.925781 55.609375 293.097656 55.40625 296.671875 C 58.625 304.550781 63.890625 309.1875 64.230469 309.46875 C 70.582031 314.75 74.535156 314.136719 76.953125 313.207031 Z M 76.953125 313.207031 " fill-opacity="1" fill-rule="nonzero"/><g clip-path="url(#c5d2ada546)"><path fill="#ffffff" d="M 242.410156 252.164062 L 181.714844 252.164062 C 173.585938 252.164062 148.746094 233.457031 129.214844 215.300781 L 128.949219 218.761719 C 127.597656 232.527344 122.285156 287.953125 96.433594 316.40625 C 90.113281 323.183594 87.207031 324.757812 82.128906 326.710938 C 79.808594 327.597656 76.984375 328.269531 73.761719 328.269531 C 71.230469 328.269531 68.4375 327.808594 65.472656 326.746094 C 65.632812 326.933594 65.785156 327.144531 65.964844 327.316406 C 66.28125 327.632812 66.714844 327.851562 67.042969 328.160156 C 68.398438 329.40625 69.875 330.546875 71.449219 331.617188 C 72.078125 332.042969 72.667969 332.488281 73.335938 332.878906 C 77.75 335.496094 82.863281 337.519531 88.773438 338.753906 C 89.230469 338.855469 89.6875 338.890625 90.132812 338.898438 C 93.730469 339.570312 97.570312 340.019531 101.714844 340.207031 C 114.636719 329.382812 124.976562 309.417969 128.769531 300.039062 C 130.265625 296.328125 134.476562 294.542969 138.167969 296.042969 C 141.867188 297.527344 143.660156 301.730469 142.171875 305.445312 C 140.460938 309.695312 128.4375 338.113281 108.914062 352.96875 C 111.753906 357.632812 114.636719 361.917969 116.507812 364.644531 C 117.863281 366.601562 120.089844 367.773438 122.46875 367.773438 L 242.339844 367.773438 C 240.359375 362.15625 240.632812 355.863281 243.4375 350.496094 L 276.558594 287.144531 C 276.941406 286.382812 277.359375 285.648438 277.828125 284.960938 C 279.144531 282.996094 280.683594 281.210938 282.394531 279.679688 C 272.410156 262.078125 258.5 252.164062 242.410156 252.164062 Z M 242.410156 252.164062 " fill-opacity="1" fill-rule="nonzero"/></g></svg>