<svg xmlns="http://www.w3.org/2000/svg" xmlns:xlink="http://www.w3.org/1999/xlink" width="500" zoomAndPan="magnify" viewBox="0 0 375 374.999991" height="500" preserveAspectRatio="xMidYMid meet" version="1.0"><defs><clipPath id="675f7c97b0"><path d="M 34 9.046875 L 100 9.046875 L 100 214 L 34 214 Z M 34 9.046875 " clip-rule="nonzero"/></clipPath><clipPath id="03fc0da4fd"><path d="M 331 158 L 341.207031 158 L 341.207031 250 L 331 250 Z M 331 158 " clip-rule="nonzero"/></clipPath></defs><g clip-path="url(#675f7c97b0)"><path fill="#ffffff" d="M 67.335938 163.503906 C 69.386719 162.683594 70.617188 160.632812 70.617188 158.582031 L 70.617188 30.628906 L 89.480469 56.464844 C 90.710938 58.925781 93.992188 59.746094 96.453125 58.515625 C 98.914062 57.285156 99.734375 54.003906 98.503906 51.542969 C 98.09375 51.132812 69.796875 11.761719 69.796875 11.761719 C 68.976562 10.53125 67.335938 9.710938 65.695312 9.710938 C 63.234375 9.710938 62.003906 10.941406 61.59375 11.761719 L 35.347656 53.59375 C 33.707031 56.054688 34.527344 58.925781 36.988281 60.566406 C 37.808594 60.976562 38.628906 61.386719 39.859375 61.386719 C 41.5 61.386719 43.140625 60.566406 44.371094 58.925781 L 60.773438 32.679688 L 60.773438 145.046875 L 43.960938 124.953125 C 42.320312 122.902344 39.039062 122.492188 36.578125 124.542969 C 35.347656 125.363281 34.9375 127.003906 34.9375 128.234375 L 34.9375 208.617188 C 34.9375 211.484375 37.398438 213.535156 39.859375 213.535156 C 42.320312 213.535156 44.777344 211.074219 44.777344 208.617188 L 44.777344 142.175781 L 61.59375 162.273438 C 63.234375 163.914062 65.695312 164.324219 67.335938 163.503906 Z M 67.335938 163.503906 " fill-opacity="1" fill-rule="nonzero"/></g><path fill="#ffffff" d="M 306.429688 156.941406 C 303.558594 156.941406 301.507812 159.402344 301.507812 161.863281 L 301.507812 243.476562 L 284.691406 223.378906 C 283.054688 221.328125 279.773438 220.917969 277.3125 222.96875 C 276.082031 223.789062 275.671875 225.429688 275.671875 226.660156 L 275.671875 342.722656 L 257.214844 313.601562 C 255.574219 311.144531 252.703125 310.324219 250.242188 311.960938 C 247.785156 313.601562 246.964844 316.472656 248.605469 318.933594 L 276.492188 362.816406 C 277.3125 364.457031 278.953125 365.277344 281.003906 365.277344 C 283.464844 365.277344 284.691406 364.046875 285.101562 363.226562 L 310.941406 321.394531 C 312.582031 318.933594 311.761719 315.652344 309.300781 314.421875 C 306.839844 312.78125 303.558594 313.601562 302.328125 316.0625 L 285.921875 342.3125 L 285.921875 241.015625 L 302.738281 261.109375 C 304.378906 263.160156 307.660156 263.570312 310.121094 261.519531 C 311.351562 260.699219 311.761719 259.058594 311.761719 257.828125 L 311.761719 162.273438 C 311.761719 159.402344 309.300781 156.941406 306.429688 156.941406 C 306.839844 156.941406 306.429688 156.941406 306.429688 156.941406 Z M 306.429688 156.941406 " fill-opacity="1" fill-rule="nonzero"/><path fill="#ffffff" d="M 235.890625 282.84375 C 179.707031 312.78125 110.398438 291.457031 80.457031 235.273438 C 79.636719 233.222656 78.410156 231.582031 77.589844 229.53125 C 70.617188 214.355469 66.925781 198.363281 67.335938 181.546875 C 67.335938 178.675781 64.875 176.625 62.414062 176.625 C 59.542969 176.625 57.492188 179.085938 57.492188 181.546875 C 57.492188 199.59375 61.183594 217.226562 68.976562 233.632812 C 97.683594 296.378906 171.914062 323.855469 234.25 295.148438 C 236.710938 293.917969 238.761719 293.097656 241.222656 291.867188 C 243.683594 290.636719 244.914062 287.765625 244.09375 285.304688 C 243.273438 282.84375 238.761719 281.203125 235.890625 282.84375 Z M 235.890625 282.84375 " fill-opacity="1" fill-rule="nonzero"/><path fill="#ffffff" d="M 187.90625 226.660156 L 188.726562 226.660156 C 195.699219 226.660156 201.441406 220.917969 201.441406 213.945312 L 201.441406 201.644531 C 201.441406 198.773438 198.570312 195.082031 193.648438 191.800781 L 187.90625 189.339844 Z M 187.90625 226.660156 " fill-opacity="1" fill-rule="nonzero"/><path fill="#ffffff" d="M 161.660156 149.148438 L 161.660156 161.453125 C 161.660156 165.144531 165.761719 168.835938 169.042969 170.886719 L 177.65625 174.167969 L 177.65625 136.027344 L 174.375 136.027344 C 167.402344 136.4375 161.660156 142.175781 161.660156 149.148438 Z M 161.660156 149.148438 " fill-opacity="1" fill-rule="nonzero"/><path fill="#ffffff" d="M 181.753906 91.734375 C 131.722656 91.734375 91.53125 131.925781 91.53125 181.957031 C 91.53125 231.992188 131.722656 272.183594 181.753906 272.183594 C 231.789062 272.183594 271.980469 231.992188 271.980469 181.957031 C 271.980469 131.925781 231.789062 91.734375 181.753906 91.734375 Z M 212.105469 154.890625 C 212.105469 157.761719 209.644531 159.8125 207.183594 159.8125 C 204.722656 159.8125 202.261719 157.351562 202.261719 154.890625 L 202.261719 149.148438 C 202.261719 142.175781 196.519531 136.4375 189.546875 136.4375 L 188.726562 136.4375 L 188.726562 178.265625 C 188.726562 178.265625 199.800781 182.777344 200.210938 182.777344 C 208.824219 188.109375 212.925781 194.671875 212.925781 201.234375 L 212.925781 213.535156 C 212.925781 226.25 202.671875 236.503906 189.957031 236.503906 L 189.136719 236.503906 L 189.136719 247.984375 C 189.136719 250.855469 186.675781 252.90625 184.214844 252.90625 C 181.753906 252.90625 179.296875 250.445312 179.296875 247.984375 L 179.296875 236.503906 L 176.015625 236.503906 C 163.300781 236.503906 153.046875 226.25 152.636719 213.535156 L 152.636719 207.796875 C 152.636719 204.925781 155.097656 202.875 157.558594 202.875 C 160.019531 202.875 162.480469 205.335938 162.480469 207.796875 L 162.480469 213.535156 C 162.480469 220.507812 168.222656 226.25 175.605469 226.25 L 178.886719 226.25 L 178.886719 185.238281 L 164.941406 179.90625 C 155.507812 174.578125 151.40625 168.425781 151.40625 161.453125 L 151.40625 149.148438 C 151.40625 136.4375 161.660156 126.183594 174.785156 126.183594 L 178.066406 126.183594 L 178.066406 115.519531 C 178.066406 112.648438 180.527344 110.597656 182.984375 110.597656 C 185.445312 110.597656 187.90625 113.058594 187.90625 115.519531 L 187.90625 126.183594 L 188.726562 126.183594 C 201.441406 126.183594 211.695312 136.4375 211.695312 149.148438 L 211.695312 154.890625 Z M 212.105469 154.890625 " fill-opacity="1" fill-rule="nonzero"/><g clip-path="url(#03fc0da4fd)"><path fill="#ffffff" d="M 336.367188 158.582031 C 333.496094 158.582031 331.445312 161.042969 331.445312 163.503906 L 331.445312 244.703125 C 331.445312 247.574219 333.90625 249.625 336.367188 249.625 C 338.828125 249.625 341.289062 247.164062 341.289062 244.703125 L 341.289062 163.503906 C 341.289062 160.632812 339.238281 158.582031 336.367188 158.582031 Z M 336.367188 158.582031 " fill-opacity="1" fill-rule="nonzero"/></g><path fill="#ffffff" d="M 118.597656 101.578125 C 121.46875 101.578125 123.519531 99.117188 123.519531 96.65625 L 123.519531 83.53125 C 178.066406 51.542969 248.195312 69.179688 280.183594 123.722656 C 284.28125 130.695312 287.972656 138.488281 290.433594 146.277344 C 291.253906 148.328125 292.894531 149.96875 295.355469 149.96875 C 295.765625 149.96875 296.585938 149.96875 296.996094 149.558594 C 299.867188 148.738281 301.097656 145.867188 300.277344 142.996094 C 278.953125 77.378906 208.414062 41.699219 142.796875 63.4375 C 136.234375 65.488281 129.671875 68.359375 123.519531 71.640625 L 123.519531 56.875 C 123.519531 54.003906 121.058594 51.953125 118.597656 51.953125 C 116.136719 51.953125 113.675781 54.414062 113.675781 56.875 L 113.675781 96.65625 C 113.675781 99.117188 115.726562 101.578125 118.597656 101.578125 Z M 118.597656 101.578125 " fill-opacity="1" fill-rule="nonzero"/></svg>