<svg xmlns="http://www.w3.org/2000/svg" xmlns:xlink="http://www.w3.org/1999/xlink" width="500" zoomAndPan="magnify" viewBox="0 0 375 374.999991" height="500" preserveAspectRatio="xMidYMid meet" version="1.0"><defs><clipPath id="702e273799"><path d="M 8.160156 15.335938 L 366.660156 15.335938 L 366.660156 359.585938 L 8.160156 359.585938 Z M 8.160156 15.335938 " clip-rule="nonzero"/></clipPath></defs><g clip-path="url(#702e273799)"><path fill="#ffffff" d="M 298.6875 15.335938 C 276.449219 36.136719 249.546875 44.746094 219.777344 51.203125 L 255.644531 183.90625 L 183.914062 22.507812 C 122.9375 18.921875 72.726562 36.855469 36.859375 69.132812 L 122.9375 287.921875 C 155.21875 244.882812 230.539062 198.253906 255.644531 198.253906 C 273.578125 198.253906 262.820312 219.773438 241.300781 241.652344 C 273.578125 192.875 223.367188 216.1875 205.433594 235.914062 C 226.953125 284.335938 345.3125 226.949219 366.832031 187.496094 Z M 24.304688 65.546875 L 8.164062 72.722656 L 108.59375 359.65625 L 135.492188 348.894531 Z M 24.304688 65.546875 " fill-opacity="1" fill-rule="nonzero"/></g></svg>