<svg xmlns="http://www.w3.org/2000/svg" xmlns:xlink="http://www.w3.org/1999/xlink" width="500" zoomAndPan="magnify" viewBox="0 0 375 374.999991" height="500" preserveAspectRatio="xMidYMid meet" version="1.0"><path fill="#ffffff" d="M 177.402344 274.078125 C 198.402344 283.738281 208.367188 285.117188 230.441406 280.671875 L 209.59375 295.542969 L 200.089844 351.648438 L 197.484375 294.007812 Z M 66.105469 141.476562 C 61.660156 148.375 60.738281 153.277344 65.492188 160.175781 L 138.921875 265.496094 L 124.511719 361.921875 L 256.964844 361.921875 L 256.964844 279.597656 L 293.449219 205.859375 C 298.203125 196.355469 299.121094 190.222656 299.121094 169.222656 L 255.429688 214.445312 L 218.484375 195.4375 L 207.292969 255.070312 C 195.492188 200.035156 169.429688 166.460938 128.496094 149.140625 L 140.148438 126.757812 C 187.367188 152.050781 204.84375 108.820312 197.332031 105.296875 L 123.746094 70.035156 C 117.613281 67.125 113.933594 67.277344 110.179688 73.253906 Z M 285.785156 120.625 L 234.734375 176.886719 C 231.515625 180.414062 252.519531 201.875 255.738281 199.117188 L 309.546875 150.824219 C 314.144531 146.6875 289.617188 116.332031 285.785156 120.625 Z M 200.242188 145.308594 C 197.484375 148.988281 227.070312 175.046875 229.675781 172.136719 L 284.40625 111.425781 C 290.078125 105.140625 253.589844 72.488281 249.835938 77.625 Z M 202.390625 41.675781 L 175.714844 86.441406 L 199.78125 99.011719 C 205.914062 102.230469 207.753906 111.273438 202.082031 131.816406 L 245.007812 69.421875 C 249.453125 62.679688 206.222656 35.238281 202.390625 41.675781 Z M 152.257812 19.90625 L 127.886719 63.90625 L 168.816406 83.21875 L 194.109375 41.371094 C 198.25 34.472656 156.09375 13.007812 152.257812 19.90625 Z M 152.257812 19.90625 " fill-opacity="1" fill-rule="nonzero"/></svg>