<svg xmlns="http://www.w3.org/2000/svg" xmlns:xlink="http://www.w3.org/1999/xlink" width="500" zoomAndPan="magnify" viewBox="0 0 375 374.999991" height="500" preserveAspectRatio="xMidYMid meet" version="1.0"><defs><clipPath id="f5fd74dd10"><path d="M 64.839844 10 L 310.089844 10 L 310.089844 364.714844 L 64.839844 364.714844 Z M 64.839844 10 " clip-rule="nonzero"/></clipPath></defs><path fill="#ffffff" d="M 192.777344 207.132812 C 192.777344 207.480469 192.742188 207.820312 192.675781 208.160156 C 192.609375 208.5 192.507812 208.832031 192.375 209.152344 C 192.242188 209.472656 192.082031 209.777344 191.886719 210.0625 C 191.695312 210.351562 191.476562 210.617188 191.230469 210.863281 C 190.988281 211.109375 190.71875 211.328125 190.433594 211.519531 C 190.144531 211.714844 189.839844 211.875 189.519531 212.007812 C 189.199219 212.140625 188.867188 212.242188 188.527344 212.308594 C 188.1875 212.375 187.847656 212.410156 187.5 212.410156 C 187.152344 212.410156 186.808594 212.375 186.46875 212.308594 C 186.128906 212.242188 185.800781 212.140625 185.480469 212.007812 C 185.160156 211.875 184.855469 211.714844 184.566406 211.519531 C 184.277344 211.328125 184.011719 211.109375 183.765625 210.863281 C 183.523438 210.617188 183.304688 210.351562 183.109375 210.0625 C 182.917969 209.777344 182.757812 209.472656 182.625 209.152344 C 182.492188 208.832031 182.390625 208.5 182.324219 208.160156 C 182.253906 207.820312 182.222656 207.480469 182.222656 207.132812 C 182.222656 206.785156 182.253906 206.441406 182.324219 206.101562 C 182.390625 205.761719 182.492188 205.433594 182.625 205.113281 C 182.757812 204.792969 182.917969 204.488281 183.109375 204.199219 C 183.304688 203.910156 183.523438 203.644531 183.765625 203.398438 C 184.011719 203.15625 184.277344 202.9375 184.566406 202.742188 C 184.855469 202.550781 185.160156 202.386719 185.480469 202.253906 C 185.800781 202.125 186.128906 202.023438 186.46875 201.957031 C 186.808594 201.886719 187.152344 201.855469 187.5 201.855469 C 187.847656 201.855469 188.1875 201.886719 188.527344 201.957031 C 188.867188 202.023438 189.199219 202.125 189.519531 202.253906 C 189.839844 202.386719 190.144531 202.550781 190.433594 202.742188 C 190.71875 202.9375 190.988281 203.15625 191.230469 203.398438 C 191.476562 203.644531 191.695312 203.910156 191.886719 204.199219 C 192.082031 204.488281 192.242188 204.792969 192.375 205.113281 C 192.507812 205.433594 192.609375 205.761719 192.675781 206.101562 C 192.742188 206.441406 192.777344 206.785156 192.777344 207.132812 Z M 192.777344 207.132812 " fill-opacity="1" fill-rule="nonzero"/><path fill="#ffffff" d="M 192.777344 227.992188 C 192.777344 228.335938 192.742188 228.679688 192.675781 229.019531 C 192.609375 229.359375 192.507812 229.691406 192.375 230.011719 C 192.242188 230.332031 192.082031 230.632812 191.886719 230.921875 C 191.695312 231.210938 191.476562 231.476562 191.230469 231.722656 C 190.988281 231.96875 190.71875 232.1875 190.433594 232.378906 C 190.144531 232.570312 189.839844 232.734375 189.519531 232.867188 C 189.199219 233 188.867188 233.097656 188.527344 233.167969 C 188.1875 233.234375 187.847656 233.269531 187.5 233.269531 C 187.152344 233.269531 186.808594 233.234375 186.46875 233.167969 C 186.128906 233.097656 185.800781 233 185.480469 232.867188 C 185.160156 232.734375 184.855469 232.570312 184.566406 232.378906 C 184.277344 232.1875 184.011719 231.96875 183.765625 231.722656 C 183.523438 231.476562 183.304688 231.210938 183.109375 230.921875 C 182.917969 230.632812 182.757812 230.332031 182.625 230.011719 C 182.492188 229.691406 182.390625 229.359375 182.324219 229.019531 C 182.253906 228.679688 182.222656 228.335938 182.222656 227.992188 C 182.222656 227.644531 182.253906 227.300781 182.324219 226.960938 C 182.390625 226.621094 182.492188 226.289062 182.625 225.972656 C 182.757812 225.652344 182.917969 225.347656 183.109375 225.058594 C 183.304688 224.769531 183.523438 224.503906 183.765625 224.257812 C 184.011719 224.011719 184.277344 223.792969 184.566406 223.601562 C 184.855469 223.410156 185.160156 223.246094 185.480469 223.113281 C 185.800781 222.980469 186.128906 222.882812 186.46875 222.8125 C 186.808594 222.746094 187.152344 222.710938 187.5 222.710938 C 187.847656 222.710938 188.1875 222.746094 188.527344 222.8125 C 188.867188 222.882812 189.199219 222.980469 189.519531 223.113281 C 189.839844 223.246094 190.144531 223.410156 190.433594 223.601562 C 190.71875 223.792969 190.988281 224.011719 191.230469 224.257812 C 191.476562 224.503906 191.695312 224.769531 191.886719 225.058594 C 192.082031 225.347656 192.242188 225.652344 192.375 225.972656 C 192.507812 226.289062 192.609375 226.621094 192.675781 226.960938 C 192.742188 227.300781 192.777344 227.644531 192.777344 227.992188 Z M 192.777344 227.992188 " fill-opacity="1" fill-rule="nonzero"/><g clip-path="url(#f5fd74dd10)"><path fill="#ffffff" d="M 224.53125 175.085938 L 247.332031 154.269531 L 258.265625 144.34375 C 278.027344 126.527344 287.824219 102.375 288.203125 70.410156 L 288.203125 43.558594 L 304.753906 43.558594 C 305.105469 43.566406 305.457031 43.539062 305.800781 43.476562 C 306.148438 43.417969 306.484375 43.320312 306.8125 43.191406 C 307.140625 43.0625 307.453125 42.902344 307.75 42.710938 C 308.042969 42.519531 308.316406 42.300781 308.570312 42.058594 C 308.820312 41.8125 309.046875 41.542969 309.242188 41.25 C 309.441406 40.960938 309.609375 40.652344 309.746094 40.328125 C 309.882812 40.003906 309.984375 39.667969 310.054688 39.324219 C 310.125 38.980469 310.160156 38.632812 310.160156 38.277344 L 310.160156 15.4375 C 310.160156 15.089844 310.125 14.746094 310.058594 14.40625 C 309.992188 14.066406 309.890625 13.738281 309.757812 13.417969 C 309.625 13.097656 309.460938 12.792969 309.269531 12.503906 C 309.078125 12.214844 308.859375 11.949219 308.613281 11.703125 C 308.367188 11.457031 308.101562 11.238281 307.8125 11.046875 C 307.527344 10.855469 307.222656 10.691406 306.902344 10.558594 C 306.582031 10.425781 306.25 10.328125 305.910156 10.257812 C 305.570312 10.191406 305.226562 10.15625 304.882812 10.15625 L 70.203125 10.15625 C 69.855469 10.15625 69.511719 10.191406 69.171875 10.257812 C 68.832031 10.328125 68.503906 10.425781 68.183594 10.558594 C 67.863281 10.691406 67.558594 10.855469 67.269531 11.046875 C 66.980469 11.238281 66.714844 11.457031 66.46875 11.703125 C 66.226562 11.949219 66.003906 12.214844 65.8125 12.503906 C 65.621094 12.792969 65.457031 13.097656 65.324219 13.417969 C 65.191406 13.738281 65.09375 14.066406 65.023438 14.40625 C 64.957031 14.746094 64.921875 15.089844 64.921875 15.4375 L 64.921875 38.277344 C 64.921875 38.625 64.957031 38.96875 65.023438 39.308594 C 65.09375 39.648438 65.191406 39.980469 65.324219 40.300781 C 65.457031 40.617188 65.621094 40.921875 65.8125 41.210938 C 66.003906 41.5 66.226562 41.765625 66.46875 42.011719 C 66.714844 42.257812 66.980469 42.476562 67.269531 42.667969 C 67.558594 42.859375 67.863281 43.023438 68.183594 43.15625 C 68.503906 43.289062 68.832031 43.386719 69.171875 43.457031 C 69.511719 43.523438 69.855469 43.558594 70.203125 43.558594 L 86.753906 43.558594 L 86.753906 70.328125 C 87.132812 102.207031 96.972656 126.359375 116.730469 144.132812 L 129.398438 155.703125 L 150.511719 174.957031 C 151.609375 175.785156 152.605469 176.714844 153.503906 177.753906 C 154.40625 178.792969 155.183594 179.914062 155.84375 181.121094 C 156.5 182.324219 157.027344 183.585938 157.414062 184.902344 C 157.804688 186.21875 158.050781 187.5625 158.152344 188.933594 C 158.019531 190.347656 157.738281 191.730469 157.308594 193.082031 C 156.878906 194.4375 156.316406 195.730469 155.613281 196.964844 C 154.910156 198.195312 154.085938 199.34375 153.140625 200.402344 C 152.195312 201.460938 151.152344 202.410156 150.003906 203.246094 L 116.648438 233.734375 C 96.886719 251.507812 87.089844 275.660156 86.667969 307.625 L 86.667969 330.933594 L 70.203125 330.933594 C 69.851562 330.933594 69.5 330.96875 69.15625 331.035156 C 68.8125 331.105469 68.476562 331.210938 68.152344 331.347656 C 67.828125 331.480469 67.519531 331.648438 67.230469 331.847656 C 66.9375 332.046875 66.671875 332.269531 66.425781 332.523438 C 66.179688 332.773438 65.960938 333.046875 65.769531 333.34375 C 65.578125 333.640625 65.417969 333.949219 65.289062 334.277344 C 65.160156 334.605469 65.066406 334.941406 65.003906 335.289062 C 64.941406 335.636719 64.914062 335.984375 64.921875 336.335938 L 64.921875 359.179688 C 64.921875 359.527344 64.957031 359.871094 65.023438 360.210938 C 65.09375 360.550781 65.191406 360.878906 65.324219 361.199219 C 65.457031 361.519531 65.621094 361.824219 65.8125 362.113281 C 66.003906 362.402344 66.226562 362.667969 66.46875 362.910156 C 66.714844 363.15625 66.980469 363.375 67.269531 363.570312 C 67.558594 363.761719 67.863281 363.921875 68.183594 364.054688 C 68.503906 364.1875 68.832031 364.289062 69.171875 364.355469 C 69.511719 364.425781 69.855469 364.457031 70.203125 364.457031 L 304.753906 364.457031 C 305.113281 364.464844 305.464844 364.4375 305.820312 364.375 C 306.171875 364.3125 306.511719 364.214844 306.84375 364.082031 C 307.175781 363.949219 307.492188 363.785156 307.789062 363.585938 C 308.085938 363.390625 308.363281 363.167969 308.617188 362.914062 C 308.867188 362.660156 309.09375 362.386719 309.289062 362.085938 C 309.484375 361.789062 309.652344 361.472656 309.785156 361.140625 C 309.917969 360.808594 310.015625 360.46875 310.078125 360.117188 C 310.140625 359.765625 310.167969 359.410156 310.160156 359.054688 L 310.160156 336.335938 C 310.160156 335.992188 310.125 335.648438 310.058594 335.308594 C 309.992188 334.96875 309.890625 334.636719 309.757812 334.316406 C 309.625 333.996094 309.460938 333.691406 309.269531 333.40625 C 309.078125 333.117188 308.859375 332.851562 308.613281 332.605469 C 308.367188 332.359375 308.101562 332.140625 307.8125 331.949219 C 307.527344 331.753906 307.222656 331.59375 306.902344 331.460938 C 306.582031 331.328125 306.25 331.226562 305.910156 331.160156 C 305.570312 331.09375 305.226562 331.058594 304.882812 331.058594 L 288.203125 331.058594 L 288.203125 307.539062 C 287.824219 275.660156 278.027344 251.507812 258.265625 233.734375 L 224.867188 203.207031 C 223.730469 202.375 222.695312 201.433594 221.761719 200.386719 C 220.824219 199.335938 220.007812 198.199219 219.3125 196.976562 C 218.617188 195.753906 218.058594 194.472656 217.636719 193.128906 C 217.210938 191.789062 216.933594 190.417969 216.804688 189.019531 C 216.917969 187.648438 217.175781 186.308594 217.578125 184.996094 C 217.976562 183.683594 218.507812 182.425781 219.175781 181.222656 C 219.839844 180.023438 220.625 178.90625 221.527344 177.871094 C 222.429688 176.835938 223.429688 175.90625 224.53125 175.085938 Z M 206.246094 189.058594 C 206.363281 191.199219 206.703125 193.304688 207.269531 195.367188 C 207.839844 197.433594 208.621094 199.417969 209.613281 201.316406 C 210.609375 203.214844 211.792969 204.984375 213.167969 206.625 C 214.546875 208.269531 216.078125 209.746094 217.773438 211.058594 L 251.046875 241.542969 C 268.78125 257.503906 277.183594 278.53125 277.519531 307.625 L 277.519531 330.933594 L 97.308594 330.933594 L 97.308594 307.667969 C 97.691406 278.53125 106.09375 257.503906 123.824219 241.542969 L 157.183594 211.101562 C 158.890625 209.777344 160.433594 208.289062 161.820312 206.632812 C 163.207031 204.976562 164.398438 203.195312 165.402344 201.28125 C 166.402344 199.367188 167.191406 197.371094 167.761719 195.289062 C 168.332031 193.207031 168.679688 191.089844 168.792969 188.933594 C 168.6875 186.84375 168.359375 184.789062 167.808594 182.769531 C 167.257812 180.75 166.496094 178.8125 165.527344 176.960938 C 164.558594 175.105469 163.402344 173.375 162.058594 171.769531 C 160.714844 170.164062 159.21875 168.722656 157.5625 167.441406 L 136.449219 148.1875 L 123.785156 136.617188 C 106.09375 120.65625 97.691406 99.628906 97.308594 70.539062 L 97.308594 43.558594 L 277.648438 43.558594 L 277.648438 70.328125 C 277.308594 99.460938 268.90625 120.488281 251.171875 136.449219 C 247.5 139.742188 243.867188 143.078125 240.195312 146.457031 L 217.265625 167.441406 C 215.636719 168.75 214.160156 170.214844 212.839844 171.839844 C 211.519531 173.460938 210.386719 175.203125 209.4375 177.066406 C 208.488281 178.929688 207.742188 180.875 207.203125 182.894531 C 206.667969 184.917969 206.347656 186.972656 206.246094 189.058594 Z M 206.246094 189.058594 " fill-opacity="1" fill-rule="nonzero"/></g><path fill="#ffffff" d="M 257 112.550781 C 257.285156 112.058594 257.484375 111.535156 257.597656 110.980469 C 257.710938 110.421875 257.734375 109.863281 257.664062 109.300781 C 257.59375 108.734375 257.4375 108.199219 257.195312 107.683594 C 256.953125 107.171875 256.632812 106.710938 256.238281 106.300781 C 255.855469 105.882812 255.410156 105.539062 254.910156 105.265625 C 254.410156 104.996094 253.878906 104.8125 253.316406 104.714844 C 252.753906 104.621094 252.191406 104.617188 251.628906 104.707031 C 251.066406 104.800781 250.535156 104.976562 250.03125 105.246094 C 229.214844 115.84375 221.40625 119.8125 189.105469 109.46875 C 183.976562 107.796875 178.734375 106.628906 173.382812 105.960938 C 168.03125 105.296875 162.664062 105.144531 157.28125 105.503906 C 151.898438 105.867188 146.601562 106.734375 141.386719 108.113281 C 136.171875 109.488281 131.132812 111.347656 126.273438 113.691406 C 125.917969 113.859375 125.582031 114.066406 125.269531 114.3125 C 124.960938 114.554688 124.679688 114.832031 124.429688 115.140625 C 124.179688 115.449219 123.96875 115.777344 123.796875 116.132812 C 123.621094 116.488281 123.488281 116.859375 123.394531 117.246094 C 123.304688 117.628906 123.257812 118.019531 123.253906 118.417969 C 123.25 118.8125 123.292969 119.203125 123.375 119.589844 C 123.460938 119.976562 123.585938 120.351562 123.757812 120.707031 C 123.925781 121.066406 124.132812 121.402344 124.375 121.714844 C 126.402344 124.121094 172.339844 168.160156 172.761719 168.160156 C 174.464844 170.117188 175.824219 172.289062 176.832031 174.675781 C 177.84375 177.066406 178.457031 179.550781 178.675781 182.136719 C 178.742188 182.667969 178.859375 183.191406 179.027344 183.699219 C 179.195312 184.210938 179.410156 184.699219 179.671875 185.167969 C 179.933594 185.636719 180.234375 186.078125 180.582031 186.492188 C 180.925781 186.902344 181.308594 187.277344 181.722656 187.617188 C 182.140625 187.953125 182.585938 188.25 183.058594 188.503906 C 183.53125 188.757812 184.023438 188.964844 184.539062 189.125 C 185.050781 189.285156 185.574219 189.394531 186.105469 189.457031 C 186.640625 189.515625 187.175781 189.523438 187.710938 189.484375 C 188.21875 189.53125 188.726562 189.53125 189.234375 189.480469 C 189.742188 189.429688 190.238281 189.328125 190.726562 189.179688 C 191.214844 189.027344 191.683594 188.832031 192.132812 188.589844 C 192.582031 188.347656 193 188.0625 193.394531 187.738281 C 193.785156 187.410156 194.144531 187.050781 194.464844 186.652344 C 194.785156 186.257812 195.0625 185.832031 195.300781 185.382812 C 195.539062 184.929688 195.726562 184.460938 195.871094 183.96875 C 196.015625 183.480469 196.109375 182.980469 196.15625 182.472656 C 196.355469 180.800781 196.710938 179.164062 197.21875 177.558594 C 197.722656 175.953125 198.375 174.40625 199.167969 172.921875 C 199.964844 171.4375 200.886719 170.042969 201.945312 168.730469 C 203 167.417969 204.164062 166.214844 205.445312 165.121094 C 206.164062 164.484375 209.117188 161.65625 213.128906 157.816406 C 223.007812 148.355469 239.476562 132.480469 243.996094 128.511719 C 249.191406 123.894531 253.527344 118.574219 257 112.550781 Z M 257 112.550781 " fill-opacity="1" fill-rule="nonzero"/><path fill="#ffffff" d="M 114.789062 314.042969 C 114.78125 314.398438 114.808594 314.75 114.871094 315.101562 C 114.933594 315.449219 115.03125 315.789062 115.164062 316.121094 C 115.292969 316.453125 115.457031 316.765625 115.652344 317.0625 C 115.847656 317.359375 116.070312 317.636719 116.320312 317.886719 C 116.570312 318.140625 116.84375 318.363281 117.140625 318.5625 C 117.433594 318.757812 117.746094 318.925781 118.078125 319.058594 C 118.40625 319.191406 118.746094 319.292969 119.09375 319.359375 C 119.445312 319.421875 119.796875 319.453125 120.152344 319.449219 L 254.886719 319.449219 C 255.234375 319.449219 255.578125 319.414062 255.917969 319.347656 C 256.257812 319.277344 256.589844 319.179688 256.910156 319.046875 C 257.230469 318.914062 257.53125 318.75 257.820312 318.558594 C 258.109375 318.367188 258.375 318.148438 258.621094 317.902344 C 258.867188 317.65625 259.085938 317.390625 259.277344 317.101562 C 259.46875 316.8125 259.632812 316.507812 259.765625 316.1875 C 259.898438 315.867188 259.996094 315.539062 260.066406 315.199219 C 260.132812 314.859375 260.167969 314.515625 260.167969 314.167969 C 260.136719 313 260.082031 311.828125 259.996094 310.660156 C 259.914062 309.492188 259.800781 308.324219 259.65625 307.160156 C 259.515625 306 259.347656 304.839844 259.152344 303.683594 C 258.953125 302.53125 258.730469 301.378906 258.476562 300.234375 C 258.222656 299.09375 257.941406 297.953125 257.636719 296.824219 C 257.328125 295.695312 256.992188 294.570312 256.628906 293.457031 C 256.269531 292.34375 255.878906 291.238281 255.464844 290.140625 C 255.046875 289.046875 254.605469 287.960938 254.140625 286.886719 C 253.671875 285.8125 253.179688 284.75 252.660156 283.699219 C 252.140625 282.648438 251.59375 281.613281 251.027344 280.589844 C 250.457031 279.566406 249.863281 278.554688 249.246094 277.558594 C 248.625 276.5625 247.984375 275.585938 247.320312 274.621094 C 246.652344 273.65625 245.964844 272.707031 245.253906 271.777344 C 244.542969 270.847656 243.808594 269.933594 243.054688 269.039062 C 242.296875 268.140625 241.519531 267.265625 240.722656 266.40625 C 239.925781 265.550781 239.105469 264.710938 238.269531 263.890625 C 237.429688 263.074219 236.574219 262.277344 235.695312 261.5 C 234.820312 260.722656 233.921875 259.96875 233.007812 259.234375 C 232.097656 258.5 231.164062 257.789062 230.21875 257.097656 C 229.269531 256.410156 228.304688 255.746094 227.324219 255.101562 C 226.34375 254.460938 225.351562 253.84375 224.339844 253.25 C 223.332031 252.65625 222.308594 252.085938 221.269531 251.542969 C 220.230469 250.996094 219.183594 250.476562 218.121094 249.984375 C 217.058594 249.488281 215.984375 249.023438 214.898438 248.582031 C 213.8125 248.136719 212.71875 247.722656 211.613281 247.335938 C 210.507812 246.945312 209.394531 246.582031 208.269531 246.25 C 207.148438 245.914062 206.015625 245.605469 204.878906 245.324219 C 203.742188 245.042969 202.597656 244.792969 201.449219 244.566406 C 200.296875 244.339844 199.144531 244.144531 197.984375 243.976562 C 196.824219 243.804688 195.664062 243.664062 194.496094 243.550781 C 193.328125 243.4375 192.160156 243.351562 190.992188 243.296875 C 189.820312 243.242188 188.648438 243.210938 187.476562 243.210938 C 186.308594 243.210938 185.136719 243.242188 183.964844 243.296875 C 182.796875 243.351562 181.625 243.4375 180.460938 243.550781 C 179.292969 243.664062 178.132812 243.804688 176.972656 243.976562 C 175.8125 244.144531 174.660156 244.339844 173.507812 244.566406 C 172.359375 244.792969 171.214844 245.042969 170.078125 245.324219 C 168.941406 245.605469 167.808594 245.914062 166.6875 246.25 C 165.5625 246.582031 164.449219 246.945312 163.34375 247.335938 C 162.238281 247.722656 161.144531 248.136719 160.058594 248.582031 C 158.972656 249.023438 157.898438 249.488281 156.835938 249.984375 C 155.773438 250.476562 154.726562 250.996094 153.6875 251.542969 C 152.648438 252.085938 151.625 252.65625 150.617188 253.25 C 149.605469 253.84375 148.609375 254.460938 147.632812 255.101562 C 146.652344 255.746094 145.6875 256.410156 144.738281 257.097656 C 143.792969 257.789062 142.859375 258.5 141.945312 259.234375 C 141.035156 259.96875 140.136719 260.722656 139.261719 261.5 C 138.382812 262.277344 137.527344 263.074219 136.6875 263.890625 C 135.851562 264.710938 135.03125 265.550781 134.234375 266.40625 C 133.4375 267.265625 132.660156 268.140625 131.902344 269.039062 C 131.148438 269.933594 130.414062 270.847656 129.703125 271.777344 C 128.992188 272.707031 128.304688 273.65625 127.636719 274.621094 C 126.972656 275.585938 126.332031 276.5625 125.710938 277.558594 C 125.09375 278.554688 124.5 279.566406 123.929688 280.589844 C 123.363281 281.613281 122.816406 282.648438 122.296875 283.699219 C 121.777344 284.75 121.285156 285.8125 120.816406 286.886719 C 120.351562 287.960938 119.90625 289.046875 119.492188 290.140625 C 119.078125 291.238281 118.6875 292.34375 118.328125 293.457031 C 117.964844 294.570312 117.628906 295.695312 117.320312 296.824219 C 117.015625 297.953125 116.734375 299.09375 116.480469 300.234375 C 116.226562 301.378906 116.003906 302.53125 115.804688 303.683594 C 115.609375 304.839844 115.441406 306 115.296875 307.160156 C 115.15625 308.324219 115.042969 309.492188 114.960938 310.660156 C 114.875 311.828125 114.816406 313 114.789062 314.167969 Z M 114.789062 314.042969 " fill-opacity="1" fill-rule="nonzero"/></svg>